<svg id="Grupo_1613" data-name="Grupo 1613" xmlns="http://www.w3.org/2000/svg" width="7.645" height="9.605" viewBox="0 0 7.645 9.605">
  <path id="Trazado_2461" data-name="Trazado 2461" d="M205.237,1360.175h1.922c.038.014.075.032.114.043a1.054,1.054,0,0,1,.841,1.061c0,.054.011.109.02.182h1.883v1.286h-.623c0,.833,0,1.643,0,2.452,0,1.052.011,2.1-.013,3.155a1.364,1.364,0,0,1-1.07,1.426h-4.226a1.335,1.335,0,0,1-1.054-1.215,2.02,2.02,0,0,1-.027-.339q0-2.614,0-5.227v-.268h-.632v-1.278h1.9c0-.09.009-.153.01-.216a.994.994,0,0,1,.64-.945C205.024,1360.245,205.132,1360.213,205.237,1360.175Zm3.507,2.576h-5.093c-.007.132-.019.252-.019.372q0,2.506,0,5.014a2.263,2.263,0,0,0,.074.568.54.54,0,0,0,.58.433q1.91,0,3.82,0a.536.536,0,0,0,.579-.433,2.633,2.633,0,0,0,.076-.632c.006-1.643,0-3.286,0-4.929C208.765,1363.017,208.752,1362.89,208.744,1362.751Zm-1.295-1.3a.443.443,0,0,0-.436-.624c-.539-.015-1.079-.014-1.618,0-.367.009-.536.254-.452.627Z" transform="translate(-202.372 -1360.175)" fill="#666"/>
  <path id="Trazado_2462" data-name="Trazado 2462" d="M206.509,1363.388v5.1h-.619v-5.1Z" transform="translate(-202.372 -1360.175)" fill="#666"/>
  <path id="Trazado_2463" data-name="Trazado 2463" d="M204.3,1363.387h.6v5.1h-.6Z" transform="translate(-202.372 -1360.175)" fill="#666"/>
  <path id="Trazado_2464" data-name="Trazado 2464" d="M207.5,1363.387h.6v5.1h-.6Z" transform="translate(-202.372 -1360.175)" fill="#666"/>
</svg>
