<svg id="Grupo_1609" data-name="Grupo 1609" xmlns="http://www.w3.org/2000/svg" width="8.203" height="10.143" viewBox="0 0 8.203 10.143">
  <path id="Trazado_2412" data-name="Trazado 2412" d="M200.909,1241.607v-3.418a1.084,1.084,0,0,1,1.113-1.121q1.918,0,3.838,0a1.1,1.1,0,0,1,1.093.787,1.089,1.089,0,0,1,.039.306c0,.223,0,.446,0,.669,0,.086.026.1.106.1.294-.005.587,0,.88,0a1.1,1.1,0,0,1,1.126,1.132c-.016.563,0,1.126,0,1.689a.348.348,0,0,0-.193.071.279.279,0,0,0-.1.31.3.3,0,0,0,.3.222v.2c-.114,0-.13.078-.133.173-.036-.035-.021-.066-.025-.094s-.025-.082-.066-.073c-.084.02-.167-.018-.254.007a.245.245,0,0,1,.022.1c0,.024,0,.053-.031.056s-.047-.02-.046-.052c0-.058-.013-.117.037-.171a.168.168,0,0,0-.113,0,.213.213,0,0,1,.009.219c-.006.013-.013.03,0,.034a.4.4,0,0,0,.194,0c.057-.008-.006-.05,0-.078s0-.077.035-.084.027.042.041.064-.08.1.02.1.005-.071.029-.106c.012-.019,0-.059.035-.062s.046.031.047.062a.07.07,0,0,1-.011.056c-.043.049,0,.065.03.05a.256.256,0,0,1,.181.008c0,1.133.006,2.265,0,3.4a1.076,1.076,0,0,1-1.088,1.033q-1.948.009-3.9,0a1.084,1.084,0,0,1-1.1-1.119c.009-.216,0-.433,0-.65,0-.074-.017-.1-.093-.1-.343,0-.687.021-1.029-.008a1.076,1.076,0,0,1-.99-1.087v-1.489c.066.01.14.039.177-.062-.053-.01-.107.076-.146-.011.063-.026.167.046.166-.094.033.042.018.08.022.115s0,.068.042.062.014-.042.014-.066-.03-.1.03-.107.023.057.029.09a.149.149,0,0,1,0,.03c0,.034.008.063.05.052s.013-.039.007-.061a.4.4,0,0,1-.006-.069c0-.022.005-.041.03-.043a.032.032,0,0,1,.039.023c.02.067.089.129.005.209.049,0,.108.025.1-.019-.008-.1.052-.162.086-.251h-.207c-.047,0-.1-.1-.14,0l-.009,0c-.06-.119-.076-.009-.107.022-.013.013-.024,0-.034,0a.163.163,0,0,0-.153,0v-.433c.012,0,.025,0,.03.019.047.155.111.2.261.195.033,0,.088.01.075-.048-.009-.037.014-.11-.073-.1-.053.006-.1-.009-.1-.078a.834.834,0,0,0,0-.1c-.011-.085.013-.133.11-.115.055.01.072-.014.075-.071,0-.078-.044-.064-.089-.067s-.107.025-.094-.057c.016-.1-.038-.109-.115-.1A.412.412,0,0,1,200.909,1241.607Zm2.773,5.024c-.05-.06-.152-.017-.194-.1,0-.008-.053-.01-.035.04a.276.276,0,0,1,0,.184c-.01.028-.009.042.023.049.131.028.189-.006.226-.135a.122.122,0,0,1,.015.2c.049-.006.112.028.108-.027-.008-.1.054-.161.086-.248h-.2C203.685,1246.591,203.682,1246.61,203.682,1246.631Zm2.139.119c.018,0,.032.021.029.034-.02.081.03.088.088.087.084,0,.1-.054.1-.124.005-.039-.043-.1.039-.118a.527.527,0,0,0-.006.088.1.1,0,0,0,.093.089.1.1,0,0,0,.112-.071c-.055-.012-.111.061-.159-.032.094.035.172-.035.253.009.015.008.034.014.027.034s-.029.01-.044,0-.043-.029-.053.007,0,.049.039.051.091.012.111-.039-.012-.08-.06-.094c-.015,0-.032-.008-.028-.031s.022-.007.035,0c.043.021.065,0,.041-.036s-.067-.021-.1-.009a.075.075,0,0,0-.033.035c-.012.022-.022.015-.035,0-.064-.073-.128-.045-.192,0a.215.215,0,0,0-.261,0c-.049-.084-.129-.042-.188-.033-.077.012-.067.092-.071.153-.042-.02-.015-.059-.024-.088s-.026-.08-.069-.071c-.086.018-.173-.018-.277.013a.082.082,0,0,1,.046.09c0,.031,0,.065-.043.063s-.034-.034-.033-.06a.221.221,0,0,1,.034-.164c-.067,0-.127-.03-.093.073a.2.2,0,0,1-.008.146c-.007.016-.016.041,0,.042a.577.577,0,0,0,.194,0c.054-.014-.017-.049-.008-.08s-.006-.062.026-.08a.038.038,0,0,1,.036,0c.027.017.02.047.019.072a.112.112,0,0,1-.014.047c-.02.042.007.046.036.046s.076,0,.036-.053a.089.089,0,0,1,.011-.11.034.034,0,0,1,.035-.005c.033.027.019.066.017.1l0,.009c-.016.025-.028.05.016.058s.073,0,.065-.056a.678.678,0,0,0,.062.044C205.686,1246.828,205.8,1246.8,205.821,1246.75Zm-1.732-.024a.079.079,0,0,1-.01-.122.085.085,0,0,1,.124-.015c.017.011.04.037.056,0a.045.045,0,0,0-.009-.055.176.176,0,0,0-.244.1.141.141,0,0,0,.074.159c.066.04.131-.006.2,0a.655.655,0,0,0,0-.108c-.007-.043-.049-.03-.074-.026s-.1-.034-.1.045Zm.432-.1c.074.01.028.067.039.1s-.011.055.021.069a.046.046,0,0,0,.038,0c.04-.03-.011-.041-.014-.062a.18.18,0,0,1,0-.04c0-.026-.014-.068.034-.067s.027.035.034.06-.032.115.039.109-.015-.064.009-.1c.014-.021-.011-.065.032-.072s.042.024.053.05c.024.061.067.12-.008.191.05-.007.1.024.1-.03a.532.532,0,0,1,.084-.234c-.006,0-.01-.011-.015-.012-.091-.012-.2.049-.267-.057,0,0-.023,0-.025.007-.045.125-.068,0-.11-.018.007.051-.04.068-.044.108-.04-.021-.075-.054-.127-.043a.1.1,0,0,0-.091.1.107.107,0,0,0,.09.115c.051.014.084-.009.109-.072-.045-.008-.1.062-.138-.009C204.413,1246.68,204.538,1246.772,204.521,1246.63Zm-2.888-4.884-.069.01a.3.3,0,0,0,.02.594l.049.008q0,.918,0,1.837a.369.369,0,0,0,.421.422c.29,0,.579,0,.869,0,.082,0,.1-.025.1-.1,0-.589,0-1.178,0-1.768a.066.066,0,0,0,0-.1v-.04a.038.038,0,0,0,0-.06l0-.22h.162l-.165-.18v-.24l.152-.141h-.149q0-.953,0-1.907a.426.426,0,0,1,.01-.079,1.046,1.046,0,0,1,1.045-.854c.65,0,1.3,0,1.948,0,.238,0,.238,0,.241-.233,0-.02,0-.04.005-.06.014-.047.027-.094.091-.047.018.013.053.014.037.044s-.032,0-.047-.011-.039-.017-.048.008-.007.046.017.051c.047.008.1.027.131-.031s-.005-.081-.053-.1c-.016-.005-.033-.007-.035-.032.007,0,.017-.009.024-.007s.05.039.06-.008-.032-.029-.054-.038c-.061-.025-.074.053-.121.055l-.008-.388c.038-.009.056.02.072.042.075.1.174.073.288.066-.086-.087-.156-.163-.233-.231s-.082-.1,0-.155a1.64,1.64,0,0,0,.183-.171c-.175-.067-.282.033-.4.159,0-.132,0-.238,0-.343,0-.07-.019-.09-.089-.091s-.087.031-.085.1c0,.1,0,.2,0,.3l-.061-.016a.3.3,0,0,0-.487-.009.409.409,0,0,1-.167,0,.3.3,0,0,0-.491,0l-.072,0c0-.086-.023-.138-.123-.117-.056.011-.09-.007-.08-.073s0-.088-.077-.089-.091.029-.084.093c.005.038,0,.08-.052.069-.1-.02-.116.038-.11.116a.46.46,0,0,1-.177-.012c-.019-.036-.061-.034-.09-.052s-.092-.038-.077-.1.067-.059.113-.061a.169.169,0,0,1,.087.016c.087.055.107-.024.13-.068s-.039-.061-.068-.073a.372.372,0,0,0-.28-.008.219.219,0,0,0-.149.284c.007.025.025.047.013.076l-.1,0c0-.065.01-.127-.1-.119s-.052.077-.069.119c-.463,0-.926,0-1.389,0a.369.369,0,0,0-.415.418Q201.632,1239.977,201.633,1241.746Zm2.172,4.6a.583.583,0,0,0,.413.139q1.824,0,3.647,0c.05,0,.1,0,.15,0a.366.366,0,0,0,.363-.393v-.979q0-1.379,0-2.757c.03,0,.06,0,.09,0a.3.3,0,0,0,.289-.253.3.3,0,0,0-.221-.332.852.852,0,0,0-.158-.013q0-.844,0-1.689a.37.37,0,0,0-.407-.41h-3.818a.37.37,0,0,0-.411.414v5.387a.434.434,0,0,1-.04.242.129.129,0,0,0,0,.134.527.527,0,0,1,.029.339c-.112.078-.112.094,0,.155C203.754,1246.336,203.776,1246.356,203.8,1246.346Zm-.364-.275c0,.077.005.153,0,.229s.034.071.085.071.081-.005.079-.068c-.005-.139,0-.279,0-.418,0-.059,0-.1-.08-.1s-.087.031-.083.094S203.441,1246.008,203.441,1246.071Zm.185-8.55c0-.06-.025-.1-.091-.108a.1.1,0,1,0-.026.2A.1.1,0,0,0,203.626,1237.521Zm-.1,8.008a.1.1,0,1,0,.1.1A.092.092,0,0,0,203.524,1245.529Zm3.1,1.027c-.027-.039-.075-.02-.108-.035a.022.022,0,0,0-.034.022.21.21,0,0,0,.014.047c.038-.029.071.018.107.005C206.616,1246.592,206.619,1246.575,206.629,1246.556Zm-.009-8.1c0-.014,0-.037-.022-.034s-.069-.033-.1-.008c-.017.011,0,.03,0,.045a.288.288,0,0,0,.121.017A.058.058,0,0,0,206.62,1238.451Zm-3.525,4.1c.021-.078.022,0,.034,0a.132.132,0,0,0,.068-.007.089.089,0,0,0,0-.043.345.345,0,0,0-.11-.012c-.031,0,0,.03,0,.046S203.08,1242.561,203.1,1242.556Z" transform="translate(-200.901 -1237.066)" fill="#666"/>
  <path id="Trazado_2413" data-name="Trazado 2413" d="M200.909,1241.607a.412.412,0,0,0,.078,0c.077-.007.131,0,.115.1-.013.082.054.054.094.057s.093-.011.089.067c0,.057-.02.081-.075.071-.1-.018-.121.03-.11.115a.834.834,0,0,1,0,.1c0,.069.048.084.1.078.087-.009.064.064.073.1.013.058-.042.046-.075.048-.15.008-.214-.04-.261-.195,0-.016-.018-.016-.03-.019A4.449,4.449,0,0,1,200.909,1241.607Z" transform="translate(-200.901 -1237.066)" fill="#666"/>
  <path id="Trazado_2414" data-name="Trazado 2414" d="M209.1,1242.353a.3.3,0,0,1-.3-.222.279.279,0,0,1,.1-.31.348.348,0,0,1,.193-.071v.163a.124.124,0,0,0-.138.14.121.121,0,0,0,.139.137Z" transform="translate(-200.901 -1237.066)" fill="#666"/>
  <path id="Trazado_2415" data-name="Trazado 2415" d="M200.909,1242.569a.163.163,0,0,1,.153,0c.01.006.021.016.034,0,.031-.031.047-.141.107-.022l.009,0c.043-.1.093,0,.14,0h.207c-.034.089-.094.155-.086.251,0,.044-.055.019-.1.019.084-.08.015-.142-.005-.209a.032.032,0,0,0-.039-.023c-.025,0-.031.021-.03.043a.4.4,0,0,0,.006.069c.006.022.039.048-.007.061s-.051-.018-.05-.052a.149.149,0,0,0,0-.03c-.006-.033.018-.094-.029-.09s-.029.068-.03.107.043.058-.014.066-.04-.032-.042-.062.011-.073-.022-.115c0,.14-.1.068-.166.094.039.087.093,0,.146.011-.037.1-.111.072-.177.062Zm.54.012c-.017,0-.032.01-.03.03s0,.046.024.049.022-.028.029-.044S201.465,1242.587,201.449,1242.581Z" transform="translate(-200.901 -1237.066)" fill="#666"/>
  <path id="Trazado_2416" data-name="Trazado 2416" d="M209.1,1242.773a.256.256,0,0,0-.181-.008c-.03.015-.073,0-.03-.05a.07.07,0,0,0,.011-.056c0-.031-.007-.066-.047-.062s-.023.043-.035.062c-.024.035.083.111-.029.106s0-.068-.02-.1,0-.071-.041-.064-.029.052-.035.084.058.07,0,.078a.4.4,0,0,1-.194,0c-.013,0-.006-.021,0-.034a.213.213,0,0,0-.009-.219.168.168,0,0,1,.113,0c-.05.054-.036.113-.037.171,0,.032.016.055.046.052s.027-.032.031-.056a.245.245,0,0,0-.022-.1c.087-.025.17.013.254-.007.041-.009.06.032.066.073s-.011.059.025.094c0-.1.019-.177.133-.173v.045c-.043,0-.073.015-.077.059s.034.065.075.075Z" transform="translate(-200.901 -1237.066)" fill="#666"/>
  <path id="Trazado_2417" data-name="Trazado 2417" d="M209.1,1242.19a.121.121,0,0,1-.139-.137.124.124,0,0,1,.138-.14Z" transform="translate(-200.901 -1237.066)" fill="#666"/>
  <path id="Trazado_2418" data-name="Trazado 2418" d="M209.1,1242.728c-.041-.01-.081-.022-.075-.075s.034-.061.077-.059Z" transform="translate(-200.901 -1237.066)" fill="#666"/>
  <path id="Trazado_2419" data-name="Trazado 2419" d="M206.266,1238.137a.364.364,0,0,0-.264-.33c0-.1.007-.2,0-.3,0-.064.009-.1.085-.1s.093.021.089.091c0,.1,0,.211,0,.343.115-.126.222-.226.4-.159a1.64,1.64,0,0,1-.183.171c-.082.058-.065.1,0,.155s.147.144.233.231c-.114.007-.213.038-.288-.066C206.322,1238.157,206.3,1238.128,206.266,1238.137Z" transform="translate(-200.901 -1237.066)" fill="#666"/>
  <path id="Trazado_2420" data-name="Trazado 2420" d="M208.382,1241.912a.3.3,0,0,1,0-.16.852.852,0,0,1,.158.013.3.3,0,0,1,.221.332.3.3,0,0,1-.289.253c-.03,0-.06,0-.09,0a.29.29,0,0,1,0-.16l.049,0a.144.144,0,1,0,0-.284Z" transform="translate(-200.901 -1237.066)" fill="#666"/>
  <path id="Trazado_2421" data-name="Trazado 2421" d="M201.633,1241.746v.172c-.1-.007-.162.042-.162.134s.06.142.162.134v.172l-.049-.008a.3.3,0,0,1-.02-.594Z" transform="translate(-200.901 -1237.066)" fill="#666"/>
  <path id="Trazado_2422" data-name="Trazado 2422" d="M204.021,1237.776a1.28,1.28,0,0,1-.321.015c.012-.029-.006-.051-.013-.076a.219.219,0,0,1,.149-.284.372.372,0,0,1,.28.008c.029.012.1.016.068.073s-.043.123-.13.068a.169.169,0,0,0-.087-.016c-.046,0-.1,0-.113.061s.038.075.077.1S204,1237.74,204.021,1237.776Z" transform="translate(-200.901 -1237.066)" fill="#666"/>
  <path id="Trazado_2423" data-name="Trazado 2423" d="M203.441,1246.071c0-.063,0-.126,0-.189s.007-.094.083-.094.081.038.08.1c0,.139,0,.279,0,.418,0,.063-.029.069-.079.068s-.091,0-.085-.071S203.441,1246.148,203.441,1246.071Z" transform="translate(-200.901 -1237.066)" fill="#666"/>
  <path id="Trazado_2424" data-name="Trazado 2424" d="M204.724,1237.789H204.2c-.006-.078.008-.136.11-.116.056.011.057-.031.052-.069-.007-.064.01-.093.084-.093s.086.031.077.089.024.084.08.073C204.7,1237.651,204.728,1237.7,204.724,1237.789Z" transform="translate(-200.901 -1237.066)" fill="#666"/>
  <path id="Trazado_2425" data-name="Trazado 2425" d="M205.56,1246.749c.008.054-.023.063-.065.056s-.032-.033-.016-.058l0-.009c0-.035.016-.074-.017-.1a.034.034,0,0,0-.035.005.089.089,0,0,0-.011.11c.04.055,0,.053-.036.053s-.056,0-.036-.046a.112.112,0,0,0,.014-.047c0-.025.008-.055-.019-.072a.038.038,0,0,0-.036,0c-.032.018-.019.052-.026.08s.062.066.008.08a.577.577,0,0,1-.194,0c-.016,0-.007-.026,0-.042a.2.2,0,0,0,.008-.146c-.034-.1.026-.077.093-.073a.221.221,0,0,0-.034.164c0,.026,0,.059.033.06s.042-.032.043-.063a.082.082,0,0,0-.046-.09c.1-.031.191.005.277-.013.043-.009.058.035.069.071s-.018.068.024.088Z" transform="translate(-200.901 -1237.066)" fill="#666"/>
  <path id="Trazado_2426" data-name="Trazado 2426" d="M204.523,1246.632c0-.04.051-.057.044-.108.042.018.065.143.11.018,0-.005.023-.009.025-.007.07.106.176.045.267.057.005,0,.009.008.015.012a.532.532,0,0,0-.084.234c0,.054-.055.023-.1.03.075-.071.032-.13.008-.191-.011-.026-.023-.054-.053-.05s-.018.051-.032.072c-.024.037.073.094-.009.1s-.03-.07-.039-.109,0-.06-.034-.06-.031.041-.034.067a.18.18,0,0,0,0,.04c0,.021.054.032.014.062a.046.046,0,0,1-.038,0c-.032-.014-.013-.046-.021-.069s.035-.092-.039-.1Zm.349.081c.017-.034.045-.056.015-.087-.011-.012-.021-.01-.031,0C204.827,1246.659,204.858,1246.68,204.872,1246.713Z" transform="translate(-200.901 -1237.066)" fill="#666"/>
  <path id="Trazado_2427" data-name="Trazado 2427" d="M206.081,1246.631c.064-.045.128-.073.192,0,.013.014.023.021.035,0a.075.075,0,0,1,.033-.035c.035-.012.083-.02.1.009s0,.057-.041.036c-.013-.007-.024-.012-.035,0s.013.027.028.031c.048.014.081.041.06.094s-.067.042-.111.039-.047-.022-.039-.051.033-.021.053-.007.032.033.044,0-.012-.026-.027-.034c-.081-.044-.159.026-.253-.009.048.093.1.02.159.032a.1.1,0,0,1-.112.071.1.1,0,0,1-.093-.089.527.527,0,0,1,.006-.088Z" transform="translate(-200.901 -1237.066)" fill="#666"/>
  <path id="Trazado_2428" data-name="Trazado 2428" d="M205.941,1237.791a4.411,4.411,0,0,1-.487-.009A.3.3,0,0,1,205.941,1237.791Z" transform="translate(-200.901 -1237.066)" fill="#666"/>
  <path id="Trazado_2429" data-name="Trazado 2429" d="M205.287,1237.784a3.681,3.681,0,0,1-.491,0A.3.3,0,0,1,205.287,1237.784Z" transform="translate(-200.901 -1237.066)" fill="#666"/>
  <path id="Trazado_2430" data-name="Trazado 2430" d="M204.11,1246.7c0-.079.061-.04.1-.045s.067-.017.074.026a.655.655,0,0,1,0,.108c-.065-.005-.13.041-.2,0a.141.141,0,0,1-.074-.159.176.176,0,0,1,.244-.1.045.045,0,0,1,.009.055c-.016.036-.039.01-.056,0a.085.085,0,0,0-.124.015.079.079,0,0,0,.01.122c.043.044.084.037.127-.005C204.181,1246.694,204.143,1246.713,204.11,1246.7Z" transform="translate(-200.901 -1237.066)" fill="#666"/>
  <path id="Trazado_2431" data-name="Trazado 2431" d="M205.82,1246.631a.215.215,0,0,1,.261,0v0c-.082.015-.034.079-.039.118-.007.07-.021.124-.1.124-.058,0-.108-.006-.088-.087,0-.013-.011-.03-.029-.034h0v-.121Zm.177.061c-.011-.028-.022-.06-.064-.061s-.058.03-.059.066a.053.053,0,0,0,.054.059C205.968,1246.758,205.988,1246.734,206,1246.692Z" transform="translate(-200.901 -1237.066)" fill="#666"/>
  <path id="Trazado_2432" data-name="Trazado 2432" d="M203.7,1246.67c-.037.129-.1.163-.226.135-.032-.007-.033-.021-.023-.049a.276.276,0,0,0,0-.184c-.018-.05.031-.048.035-.04.042.082.144.039.194.1h0c0,.016-.005.037.021.041Zm-.06.024a.063.063,0,0,0-.061-.062c-.039,0-.059.022-.06.061a.054.054,0,0,0,.058.062C203.617,1246.756,203.637,1246.735,203.641,1246.694Z" transform="translate(-200.901 -1237.066)" fill="#666"/>
  <path id="Trazado_2433" data-name="Trazado 2433" d="M205.561,1246.751c0-.061-.006-.141.071-.153.059-.009.139-.051.188.033h0c-.056.039-.056.086,0,.121h0c-.021.052-.135.078-.2.043a.678.678,0,0,1-.062-.044Zm.118.005c.04,0,.062-.026.059-.064a.061.061,0,0,0-.064-.06c-.041,0-.057.027-.056.064A.055.055,0,0,0,205.679,1246.756Z" transform="translate(-200.901 -1237.066)" fill="#666"/>
  <path id="Trazado_2434" data-name="Trazado 2434" d="M204.521,1246.63c.017.142-.108.05-.155.094.042.071.093,0,.138.009-.025.063-.058.086-.109.072a.107.107,0,0,1-.09-.115.1.1,0,0,1,.091-.1c.052-.011.087.022.127.043Z" transform="translate(-200.901 -1237.066)" fill="#666"/>
  <path id="Trazado_2435" data-name="Trazado 2435" d="M203.626,1237.521a.1.1,0,0,1-.117.092.1.1,0,1,1,.026-.2C203.6,1237.418,203.624,1237.461,203.626,1237.521Z" transform="translate(-200.901 -1237.066)" fill="#666"/>
  <path id="Trazado_2436" data-name="Trazado 2436" d="M203.524,1245.529a.1.1,0,1,1,0,.2.1.1,0,1,1,0-.2Z" transform="translate(-200.901 -1237.066)" fill="#666"/>
  <path id="Trazado_2437" data-name="Trazado 2437" d="M203.682,1246.631c0-.021,0-.04.031-.04h.2c-.032.087-.094.151-.086.248,0,.055-.059.021-.108.027a.122.122,0,0,0-.015-.2h0c.023-.029,0-.032-.021-.041Zm.11.082c.02-.034.044-.056.017-.086a.019.019,0,0,0-.032,0C203.749,1246.657,203.779,1246.678,203.792,1246.713Z" transform="translate(-200.901 -1237.066)" fill="#666"/>
  <path id="Trazado_2438" data-name="Trazado 2438" d="M206.272,1238.637a.136.136,0,0,1,0-.112c.047,0,.06-.08.121-.055.022.009.063,0,.054.038s-.038.014-.06.008-.017.005-.024.007c0,.025.019.027.035.032.048.015.077.046.053.1s-.084.039-.131.031c-.024-.005-.023-.033-.017-.051s.03-.019.048-.008.032.038.047.011-.019-.031-.037-.044C206.3,1238.543,206.286,1238.59,206.272,1238.637Z" transform="translate(-200.901 -1237.066)" fill="#666"/>
  <path id="Trazado_2439" data-name="Trazado 2439" d="M203.025,1242.332a.344.344,0,0,1,0-.18l.165.18Z" transform="translate(-200.901 -1237.066)" fill="#666"/>
  <path id="Trazado_2440" data-name="Trazado 2440" d="M203.6,1237.788h-.167c.017-.042-.033-.111.069-.119S203.6,1237.723,203.6,1237.788Z" transform="translate(-200.901 -1237.066)" fill="#666"/>
  <path id="Trazado_2441" data-name="Trazado 2441" d="M203.731,1246.169l.074.177c-.029.01-.051-.01-.073-.022C203.619,1246.263,203.619,1246.247,203.731,1246.169Z" transform="translate(-200.901 -1237.066)" fill="#666"/>
  <path id="Trazado_2442" data-name="Trazado 2442" d="M203.021,1241.912a.234.234,0,0,1,0-.141h.149Z" transform="translate(-200.901 -1237.066)" fill="#666"/>
  <path id="Trazado_2443" data-name="Trazado 2443" d="M206.629,1246.556c-.01.019-.013.036-.021.039-.036.013-.069-.034-.107-.005a.21.21,0,0,1-.014-.047.022.022,0,0,1,.034-.022C206.554,1246.536,206.6,1246.517,206.629,1246.556Z" transform="translate(-200.901 -1237.066)" fill="#666"/>
  <path id="Trazado_2444" data-name="Trazado 2444" d="M206.62,1238.452a.058.058,0,0,1,0,.019.288.288,0,0,1-.121-.017c0-.015-.018-.034,0-.045.035-.025.068.013.1.008S206.618,1238.437,206.62,1238.452Z" transform="translate(-200.901 -1237.066)" fill="#666"/>
  <path id="Trazado_2445" data-name="Trazado 2445" d="M203.1,1242.556c-.015.005-.013-.011-.012-.015s-.028-.042,0-.046a.345.345,0,0,1,.11.012.089.089,0,0,1,0,.043.132.132,0,0,1-.068.007C203.117,1242.554,203.116,1242.478,203.1,1242.556Z" transform="translate(-200.901 -1237.066)" fill="#666"/>
  <path id="Trazado_2446" data-name="Trazado 2446" d="M203.021,1242.751a.135.135,0,0,1,0-.1A.066.066,0,0,1,203.021,1242.751Z" transform="translate(-200.901 -1237.066)" fill="#666"/>
  <path id="Trazado_2447" data-name="Trazado 2447" d="M203.022,1242.612a.053.053,0,0,1,0-.06A.038.038,0,0,1,203.022,1242.612Z" transform="translate(-200.901 -1237.066)" fill="#666"/>
  <path id="Trazado_2448" data-name="Trazado 2448" d="M201.449,1242.581c.016.006.032.015.023.035s0,.046-.029.044-.023-.03-.024-.049S201.432,1242.584,201.449,1242.581Z" transform="translate(-200.901 -1237.066)" fill="#666"/>
  <path id="Trazado_2449" data-name="Trazado 2449" d="M208.382,1241.912l.05,0a.144.144,0,1,1,0,.284l-.049,0Z" transform="translate(-200.901 -1237.066)" fill="#666"/>
  <path id="Trazado_2450" data-name="Trazado 2450" d="M201.633,1242.186c-.1.008-.162-.042-.162-.134s.06-.141.162-.134Z" transform="translate(-200.901 -1237.066)" fill="#666"/>
  <path id="Trazado_2451" data-name="Trazado 2451" d="M204.872,1246.713c-.014-.033-.045-.054-.016-.085.01-.012.02-.014.031,0C204.917,1246.657,204.889,1246.679,204.872,1246.713Z" transform="translate(-200.901 -1237.066)" fill="#666"/>
  <path id="Trazado_2452" data-name="Trazado 2452" d="M204.11,1246.7c.033.012.071-.007.106.02-.043.042-.084.049-.127.005Z" transform="translate(-200.901 -1237.066)" fill="#666"/>
  <path id="Trazado_2453" data-name="Trazado 2453" d="M206,1246.692c-.009.042-.029.066-.069.064a.053.053,0,0,1-.054-.059c0-.036.016-.066.059-.066S205.986,1246.664,206,1246.692Z" transform="translate(-200.901 -1237.066)" fill="#666"/>
  <path id="Trazado_2454" data-name="Trazado 2454" d="M205.822,1246.751c-.056-.035-.056-.082,0-.121Z" transform="translate(-200.901 -1237.066)" fill="#666"/>
  <path id="Trazado_2455" data-name="Trazado 2455" d="M203.641,1246.694c0,.041-.024.062-.063.061a.054.054,0,0,1-.058-.062c0-.039.021-.063.06-.061A.063.063,0,0,1,203.641,1246.694Z" transform="translate(-200.901 -1237.066)" fill="#666"/>
  <path id="Trazado_2456" data-name="Trazado 2456" d="M203.681,1246.63c.017.009.044.012.021.041C203.676,1246.667,203.682,1246.646,203.681,1246.63Z" transform="translate(-200.901 -1237.066)" fill="#666"/>
  <path id="Trazado_2457" data-name="Trazado 2457" d="M205.679,1246.756a.055.055,0,0,1-.061-.06c0-.037.015-.064.056-.064a.061.061,0,0,1,.064.06C205.741,1246.73,205.719,1246.752,205.679,1246.756Z" transform="translate(-200.901 -1237.066)" fill="#666"/>
  <path id="Trazado_2458" data-name="Trazado 2458" d="M203.792,1246.713c-.013-.035-.043-.056-.015-.087a.019.019,0,0,1,.032,0C203.836,1246.657,203.812,1246.679,203.792,1246.713Z" transform="translate(-200.901 -1237.066)" fill="#666"/>
</svg>
