<svg xmlns="http://www.w3.org/2000/svg" id="Grupo_1611" width="8.348" height="8.349" data-name="Grupo 1611" viewBox="0 0 8.348 8.349"><path id="Trazado_2459" fill="#666" d="M339.172,1363.66c-.183.333-.4.363-.671.091-.224-.222-.446-.444-.669-.666a.477.477,0,0,0-.067-.034c-.191.2-.388.411-.59.616q-.553.56-1.113,1.114c-.158.157-.231.157-.386,0s-.324-.322-.485-.484-.154-.229,0-.386c.572-.573,1.145-1.144,1.746-1.744-.242-.235-.483-.462-.714-.7a.639.639,0,0,1-.167-.257c-.05-.18.033-.293.256-.413h2.857Z" data-name="Trazado 2459" transform="translate(-330.824 -1360.803)"/><path id="Trazado_2460" fill="#666" d="M330.824,1366.3c.183-.333.4-.364.671-.092.23.231.457.466.712.725.206-.215.394-.418.588-.614q.567-.573,1.139-1.14c.158-.157.231-.157.386,0s.324.323.485.485.154.229,0,.386c-.571.573-1.144,1.144-1.742,1.743.24.234.48.462.71.7a.638.638,0,0,1,.167.257c.05.18-.033.293-.256.413h-2.857Z" data-name="Trazado 2460" transform="translate(-330.824 -1360.803)"/></svg>