<svg xmlns="http://www.w3.org/2000/svg" id="Grupo_1616" width="8.842" height="10.392" data-name="Grupo 1616" viewBox="0 0 8.842 10.392"><g id="Grupo_1615" data-name="Grupo 1615"><path id="Trazado_2465" fill="#666" d="M333.144,1237.274v2.079l-.064.037-2.3-2.478,2.355-2.356v1.581a4.462,4.462,0,0,1,3.308,2.216,4.252,4.252,0,0,1,.541,2.8,4.393,4.393,0,0,1-3.818,3.789v-1.087a3.378,3.378,0,0,0,2.372-1.748,3.117,3.117,0,0,0,.364-1.918A3.319,3.319,0,0,0,333.144,1237.274Z" data-name="Trazado 2465" transform="translate(-328.192 -1234.556)"/><path id="Trazado_2466" fill="#666" d="M329.895,1244.082l.75-.764,1.372.574v1.056A4.277,4.277,0,0,1,329.895,1244.082Z" data-name="Trazado 2466" transform="translate(-328.192 -1234.556)"/><path id="Trazado_2467" fill="#666" d="M329.241,1239.985H328.2a4.283,4.283,0,0,1,.881-2.129l.74.749Z" data-name="Trazado 2467" transform="translate(-328.192 -1234.556)"/><path id="Trazado_2468" fill="#666" d="M328.192,1241.127h1.05l.573,1.384-.759.715A4.272,4.272,0,0,1,328.192,1241.127Z" data-name="Trazado 2468" transform="translate(-328.192 -1234.556)"/></g></svg>